<mxfile host="app.diagrams.net" modified="2021-02-18T01:19:40.791Z" agent="5.0 (Macintosh; Intel Mac OS X 11_2_0) AppleWebKit/537.36 (KHTML, like Gecko) Chrome/88.0.4324.150 Safari/537.36" etag="lijD0l9Q5o3qQ0n-nRP7" version="14.3.0" type="github">
  <diagram name="Page-1" id="5f0bae14-7c28-e335-631c-24af17079c00">
    <mxGraphModel dx="1577" dy="1022" grid="1" gridSize="10" guides="1" tooltips="1" connect="1" arrows="1" fold="1" page="1" pageScale="1" pageWidth="1100" pageHeight="850" background="#ffffff" math="0" shadow="0">
      <root>
        <mxCell id="0" />
        <mxCell id="1" parent="0" />
        <mxCell id="xXuT_FqHgeTdE9SN5Cx6-7" value="" style="shape=ext;double=1;whiteSpace=wrap;html=1;fillColor=none;" parent="1" vertex="1">
          <mxGeometry x="104" y="20" width="408" height="2420" as="geometry" />
        </mxCell>
        <mxCell id="gPNWTfjglvAvMmKYc1Ev-26" value="" style="rounded=1;whiteSpace=wrap;html=1;strokeWidth=2;fillWeight=4;hachureGap=8;hachureAngle=45;fillColor=#1ba1e2;sketch=1;" vertex="1" parent="1">
          <mxGeometry x="180" y="470" width="260" height="1060" as="geometry" />
        </mxCell>
        <mxCell id="xXuT_FqHgeTdE9SN5Cx6-4" value="" style="edgeStyle=orthogonalEdgeStyle;rounded=0;orthogonalLoop=1;jettySize=auto;html=1;" parent="1" source="xXuT_FqHgeTdE9SN5Cx6-2" target="xXuT_FqHgeTdE9SN5Cx6-3" edge="1">
          <mxGeometry relative="1" as="geometry" />
        </mxCell>
        <mxCell id="xXuT_FqHgeTdE9SN5Cx6-2" value="run(callback)" style="rounded=1;whiteSpace=wrap;html=1;sketch=0;fillColor=#dae8fc;strokeColor=#6c8ebf;" parent="1" vertex="1">
          <mxGeometry x="250" y="40" width="120" height="60" as="geometry" />
        </mxCell>
        <mxCell id="gPNWTfjglvAvMmKYc1Ev-3" value="" style="edgeStyle=orthogonalEdgeStyle;rounded=0;orthogonalLoop=1;jettySize=auto;html=1;" edge="1" parent="1" source="xXuT_FqHgeTdE9SN5Cx6-3" target="gPNWTfjglvAvMmKYc1Ev-2">
          <mxGeometry relative="1" as="geometry" />
        </mxCell>
        <mxCell id="xXuT_FqHgeTdE9SN5Cx6-3" value="h - beforeRun&lt;br&gt;.callAsync" style="rounded=0;whiteSpace=wrap;html=1;" parent="1" vertex="1">
          <mxGeometry x="250" y="140" width="120" height="60" as="geometry" />
        </mxCell>
        <mxCell id="xXuT_FqHgeTdE9SN5Cx6-16" value="" style="edgeStyle=orthogonalEdgeStyle;rounded=0;orthogonalLoop=1;jettySize=auto;html=1;" parent="1" source="xXuT_FqHgeTdE9SN5Cx6-5" target="xXuT_FqHgeTdE9SN5Cx6-13" edge="1">
          <mxGeometry relative="1" as="geometry" />
        </mxCell>
        <mxCell id="xXuT_FqHgeTdE9SN5Cx6-5" value="finallyCallback(err,stats)" style="rounded=1;whiteSpace=wrap;html=1;fillColor=#f5f5f5;strokeColor=#666666;fontColor=#333333;" parent="1" vertex="1">
          <mxGeometry x="610" y="40" width="150" height="60" as="geometry" />
        </mxCell>
        <mxCell id="xXuT_FqHgeTdE9SN5Cx6-8" style="edgeStyle=orthogonalEdgeStyle;rounded=0;orthogonalLoop=1;jettySize=auto;html=1;entryX=0;entryY=0.5;entryDx=0;entryDy=0;" parent="1" source="xXuT_FqHgeTdE9SN5Cx6-7" target="xXuT_FqHgeTdE9SN5Cx6-5" edge="1">
          <mxGeometry relative="1" as="geometry" />
        </mxCell>
        <mxCell id="xXuT_FqHgeTdE9SN5Cx6-11" value="callback(err,stats)" style="rounded=0;whiteSpace=wrap;html=1;" parent="1" vertex="1">
          <mxGeometry x="625" y="425" width="120" height="60" as="geometry" />
        </mxCell>
        <mxCell id="xXuT_FqHgeTdE9SN5Cx6-17" value="false" style="edgeStyle=orthogonalEdgeStyle;rounded=0;orthogonalLoop=1;jettySize=auto;html=1;entryX=0.5;entryY=0;entryDx=0;entryDy=0;" parent="1" source="xXuT_FqHgeTdE9SN5Cx6-13" target="xXuT_FqHgeTdE9SN5Cx6-11" edge="1">
          <mxGeometry relative="1" as="geometry" />
        </mxCell>
        <mxCell id="xXuT_FqHgeTdE9SN5Cx6-19" value="yes" style="edgeStyle=orthogonalEdgeStyle;rounded=0;orthogonalLoop=1;jettySize=auto;html=1;" parent="1" source="xXuT_FqHgeTdE9SN5Cx6-13" target="xXuT_FqHgeTdE9SN5Cx6-18" edge="1">
          <mxGeometry relative="1" as="geometry" />
        </mxCell>
        <mxCell id="xXuT_FqHgeTdE9SN5Cx6-13" value="err" style="rhombus;whiteSpace=wrap;html=1;rounded=0;" parent="1" vertex="1">
          <mxGeometry x="645" y="200" width="80" height="80" as="geometry" />
        </mxCell>
        <mxCell id="xXuT_FqHgeTdE9SN5Cx6-20" style="edgeStyle=orthogonalEdgeStyle;rounded=0;orthogonalLoop=1;jettySize=auto;html=1;entryX=1;entryY=0.5;entryDx=0;entryDy=0;" parent="1" source="xXuT_FqHgeTdE9SN5Cx6-18" target="xXuT_FqHgeTdE9SN5Cx6-11" edge="1">
          <mxGeometry relative="1" as="geometry">
            <Array as="points">
              <mxPoint x="845" y="455" />
            </Array>
          </mxGeometry>
        </mxCell>
        <mxCell id="xXuT_FqHgeTdE9SN5Cx6-18" value="h-failed.call" style="whiteSpace=wrap;html=1;rounded=0;" parent="1" vertex="1">
          <mxGeometry x="785" y="210" width="120" height="60" as="geometry" />
        </mxCell>
        <mxCell id="xXuT_FqHgeTdE9SN5Cx6-26" value="" style="edgeStyle=orthogonalEdgeStyle;rounded=0;orthogonalLoop=1;jettySize=auto;html=1;entryX=0.5;entryY=0;entryDx=0;entryDy=0;" parent="1" source="xXuT_FqHgeTdE9SN5Cx6-22" target="xXuT_FqHgeTdE9SN5Cx6-25" edge="1">
          <mxGeometry relative="1" as="geometry">
            <mxPoint x="690" y="660.0000000000002" as="targetPoint" />
          </mxGeometry>
        </mxCell>
        <mxCell id="xXuT_FqHgeTdE9SN5Cx6-22" value="onCompiled(err,compilation)" style="rounded=1;whiteSpace=wrap;html=1;fillColor=#d5e8d4;strokeColor=#82b366;" parent="1" vertex="1">
          <mxGeometry x="610" y="510" width="160" height="60" as="geometry" />
        </mxCell>
        <mxCell id="xXuT_FqHgeTdE9SN5Cx6-28" value="" style="edgeStyle=orthogonalEdgeStyle;rounded=0;orthogonalLoop=1;jettySize=auto;html=1;" parent="1" source="xXuT_FqHgeTdE9SN5Cx6-25" target="xXuT_FqHgeTdE9SN5Cx6-27" edge="1">
          <mxGeometry relative="1" as="geometry">
            <mxPoint x="795" y="725.0000000000002" as="sourcePoint" />
          </mxGeometry>
        </mxCell>
        <mxCell id="xXuT_FqHgeTdE9SN5Cx6-29" value="false" style="edgeLabel;html=1;align=center;verticalAlign=middle;resizable=0;points=[];" parent="xXuT_FqHgeTdE9SN5Cx6-28" vertex="1" connectable="0">
          <mxGeometry x="-0.12" y="-1" relative="1" as="geometry">
            <mxPoint as="offset" />
          </mxGeometry>
        </mxCell>
        <mxCell id="xXuT_FqHgeTdE9SN5Cx6-31" value="" style="edgeStyle=orthogonalEdgeStyle;rounded=0;orthogonalLoop=1;jettySize=auto;html=1;" parent="1" target="xXuT_FqHgeTdE9SN5Cx6-30" edge="1">
          <mxGeometry relative="1" as="geometry">
            <mxPoint x="690" y="790.0000000000002" as="sourcePoint" />
          </mxGeometry>
        </mxCell>
        <mxCell id="xXuT_FqHgeTdE9SN5Cx6-25" value="h - shouldEmit.call(compilation)" style="rhombus;whiteSpace=wrap;html=1;rounded=0;" parent="1" vertex="1">
          <mxGeometry x="585" y="660" width="210" height="130" as="geometry" />
        </mxCell>
        <mxCell id="xXuT_FqHgeTdE9SN5Cx6-34" value="" style="edgeStyle=orthogonalEdgeStyle;rounded=0;orthogonalLoop=1;jettySize=auto;html=1;entryX=1;entryY=0.5;entryDx=0;entryDy=0;" parent="1" source="xXuT_FqHgeTdE9SN5Cx6-27" target="xXuT_FqHgeTdE9SN5Cx6-5" edge="1">
          <mxGeometry relative="1" as="geometry">
            <mxPoint x="880" y="550" as="targetPoint" />
            <Array as="points">
              <mxPoint x="940" y="70" />
            </Array>
          </mxGeometry>
        </mxCell>
        <mxCell id="xXuT_FqHgeTdE9SN5Cx6-27" value="h-done.callAsync(stats)" style="whiteSpace=wrap;html=1;rounded=0;" parent="1" vertex="1">
          <mxGeometry x="890" y="695" width="120" height="60" as="geometry" />
        </mxCell>
        <mxCell id="xXuT_FqHgeTdE9SN5Cx6-36" value="" style="edgeStyle=orthogonalEdgeStyle;rounded=0;orthogonalLoop=1;jettySize=auto;html=1;" parent="1" source="xXuT_FqHgeTdE9SN5Cx6-30" target="xXuT_FqHgeTdE9SN5Cx6-35" edge="1">
          <mxGeometry relative="1" as="geometry" />
        </mxCell>
        <mxCell id="xXuT_FqHgeTdE9SN5Cx6-30" value="emitAssets&lt;br&gt;写到output" style="whiteSpace=wrap;html=1;rounded=0;" parent="1" vertex="1">
          <mxGeometry x="630" y="905" width="120" height="60" as="geometry" />
        </mxCell>
        <mxCell id="xXuT_FqHgeTdE9SN5Cx6-38" value="" style="edgeStyle=orthogonalEdgeStyle;rounded=0;orthogonalLoop=1;jettySize=auto;html=1;" parent="1" source="xXuT_FqHgeTdE9SN5Cx6-35" target="xXuT_FqHgeTdE9SN5Cx6-37" edge="1">
          <mxGeometry relative="1" as="geometry" />
        </mxCell>
        <mxCell id="xXuT_FqHgeTdE9SN5Cx6-35" value="h - needAdditionalPass" style="rhombus;whiteSpace=wrap;html=1;rounded=0;" parent="1" vertex="1">
          <mxGeometry x="609" y="1040" width="163" height="80" as="geometry" />
        </mxCell>
        <mxCell id="xXuT_FqHgeTdE9SN5Cx6-40" value="" style="edgeStyle=orthogonalEdgeStyle;rounded=0;orthogonalLoop=1;jettySize=auto;html=1;" parent="1" source="xXuT_FqHgeTdE9SN5Cx6-37" target="xXuT_FqHgeTdE9SN5Cx6-39" edge="1">
          <mxGeometry relative="1" as="geometry" />
        </mxCell>
        <mxCell id="xXuT_FqHgeTdE9SN5Cx6-37" value="h-done&lt;br&gt;.callAsync" style="whiteSpace=wrap;html=1;rounded=0;" parent="1" vertex="1">
          <mxGeometry x="873.5" y="1050" width="120" height="60" as="geometry" />
        </mxCell>
        <mxCell id="xXuT_FqHgeTdE9SN5Cx6-42" value="" style="edgeStyle=orthogonalEdgeStyle;rounded=0;orthogonalLoop=1;jettySize=auto;html=1;" parent="1" source="xXuT_FqHgeTdE9SN5Cx6-39" target="xXuT_FqHgeTdE9SN5Cx6-41" edge="1">
          <mxGeometry relative="1" as="geometry" />
        </mxCell>
        <mxCell id="xXuT_FqHgeTdE9SN5Cx6-39" value="h - additionalPass&lt;br&gt;.callAsync" style="whiteSpace=wrap;html=1;rounded=0;" parent="1" vertex="1">
          <mxGeometry x="873.5" y="1190" width="120" height="60" as="geometry" />
        </mxCell>
        <mxCell id="xXuT_FqHgeTdE9SN5Cx6-41" value="compile(onCompiled)" style="whiteSpace=wrap;html=1;rounded=0;shadow=1;fillColor=#ffe6cc;strokeColor=#d79b00;" parent="1" vertex="1">
          <mxGeometry x="873.5" y="1330" width="120" height="60" as="geometry" />
        </mxCell>
        <mxCell id="gPNWTfjglvAvMmKYc1Ev-5" value="" style="edgeStyle=orthogonalEdgeStyle;rounded=0;orthogonalLoop=1;jettySize=auto;html=1;" edge="1" parent="1" source="gPNWTfjglvAvMmKYc1Ev-2" target="gPNWTfjglvAvMmKYc1Ev-4">
          <mxGeometry relative="1" as="geometry" />
        </mxCell>
        <mxCell id="gPNWTfjglvAvMmKYc1Ev-2" value="h - run&lt;br&gt;.callAsync" style="rounded=0;whiteSpace=wrap;html=1;" vertex="1" parent="1">
          <mxGeometry x="250" y="250" width="120" height="48" as="geometry" />
        </mxCell>
        <mxCell id="gPNWTfjglvAvMmKYc1Ev-7" value="" style="edgeStyle=orthogonalEdgeStyle;rounded=0;orthogonalLoop=1;jettySize=auto;html=1;" edge="1" parent="1" source="gPNWTfjglvAvMmKYc1Ev-4" target="gPNWTfjglvAvMmKYc1Ev-6">
          <mxGeometry relative="1" as="geometry" />
        </mxCell>
        <mxCell id="gPNWTfjglvAvMmKYc1Ev-4" value="readRecords" style="rounded=0;whiteSpace=wrap;html=1;" vertex="1" parent="1">
          <mxGeometry x="249" y="360" width="120" height="60" as="geometry" />
        </mxCell>
        <mxCell id="gPNWTfjglvAvMmKYc1Ev-11" value="" style="edgeStyle=orthogonalEdgeStyle;rounded=0;orthogonalLoop=1;jettySize=auto;html=1;" edge="1" parent="1" source="gPNWTfjglvAvMmKYc1Ev-6" target="gPNWTfjglvAvMmKYc1Ev-10">
          <mxGeometry relative="1" as="geometry" />
        </mxCell>
        <mxCell id="gPNWTfjglvAvMmKYc1Ev-27" style="edgeStyle=orthogonalEdgeStyle;rounded=0;orthogonalLoop=1;jettySize=auto;html=1;entryX=0;entryY=0.5;entryDx=0;entryDy=0;" edge="1" parent="1" source="gPNWTfjglvAvMmKYc1Ev-6" target="xXuT_FqHgeTdE9SN5Cx6-22">
          <mxGeometry relative="1" as="geometry" />
        </mxCell>
        <mxCell id="gPNWTfjglvAvMmKYc1Ev-6" value="compile" style="rounded=1;whiteSpace=wrap;html=1;" vertex="1" parent="1">
          <mxGeometry x="250" y="510" width="120" height="60" as="geometry" />
        </mxCell>
        <mxCell id="gPNWTfjglvAvMmKYc1Ev-13" value="" style="edgeStyle=orthogonalEdgeStyle;rounded=0;orthogonalLoop=1;jettySize=auto;html=1;" edge="1" parent="1" source="gPNWTfjglvAvMmKYc1Ev-10" target="gPNWTfjglvAvMmKYc1Ev-12">
          <mxGeometry relative="1" as="geometry" />
        </mxCell>
        <mxCell id="gPNWTfjglvAvMmKYc1Ev-10" value="params = newCompilationParams()" style="rounded=0;whiteSpace=wrap;html=1;" vertex="1" parent="1">
          <mxGeometry x="250" y="650" width="120" height="60" as="geometry" />
        </mxCell>
        <mxCell id="gPNWTfjglvAvMmKYc1Ev-15" value="" style="edgeStyle=orthogonalEdgeStyle;rounded=0;orthogonalLoop=1;jettySize=auto;html=1;" edge="1" parent="1" source="gPNWTfjglvAvMmKYc1Ev-12" target="gPNWTfjglvAvMmKYc1Ev-14">
          <mxGeometry relative="1" as="geometry" />
        </mxCell>
        <mxCell id="gPNWTfjglvAvMmKYc1Ev-12" value="h - beforeCompile" style="rounded=0;whiteSpace=wrap;html=1;" vertex="1" parent="1">
          <mxGeometry x="250" y="790" width="120" height="60" as="geometry" />
        </mxCell>
        <mxCell id="gPNWTfjglvAvMmKYc1Ev-17" value="" style="edgeStyle=orthogonalEdgeStyle;rounded=0;orthogonalLoop=1;jettySize=auto;html=1;" edge="1" parent="1" source="gPNWTfjglvAvMmKYc1Ev-14" target="gPNWTfjglvAvMmKYc1Ev-16">
          <mxGeometry relative="1" as="geometry" />
        </mxCell>
        <mxCell id="gPNWTfjglvAvMmKYc1Ev-14" value="h - compile.call" style="rounded=0;whiteSpace=wrap;html=1;" vertex="1" parent="1">
          <mxGeometry x="250" y="930" width="120" height="60" as="geometry" />
        </mxCell>
        <mxCell id="gPNWTfjglvAvMmKYc1Ev-21" value="" style="edgeStyle=orthogonalEdgeStyle;rounded=0;orthogonalLoop=1;jettySize=auto;html=1;" edge="1" parent="1" source="gPNWTfjglvAvMmKYc1Ev-16" target="gPNWTfjglvAvMmKYc1Ev-20">
          <mxGeometry relative="1" as="geometry" />
        </mxCell>
        <mxCell id="gPNWTfjglvAvMmKYc1Ev-16" value="const compilation &lt;br&gt;= this.newCompilation(params){&lt;br&gt;h-thisCompilation&lt;br&gt;h-compilation&lt;br&gt;}" style="rounded=0;whiteSpace=wrap;html=1;" vertex="1" parent="1">
          <mxGeometry x="220" y="1040" width="180" height="130" as="geometry" />
        </mxCell>
        <mxCell id="gPNWTfjglvAvMmKYc1Ev-23" value="" style="edgeStyle=orthogonalEdgeStyle;rounded=0;orthogonalLoop=1;jettySize=auto;html=1;" edge="1" parent="1" source="gPNWTfjglvAvMmKYc1Ev-20" target="gPNWTfjglvAvMmKYc1Ev-22">
          <mxGeometry relative="1" as="geometry" />
        </mxCell>
        <mxCell id="gPNWTfjglvAvMmKYc1Ev-20" value="h - make" style="rounded=0;whiteSpace=wrap;html=1;" vertex="1" parent="1">
          <mxGeometry x="262" y="1220" width="96.92" height="50" as="geometry" />
        </mxCell>
        <mxCell id="gPNWTfjglvAvMmKYc1Ev-25" value="" style="edgeStyle=orthogonalEdgeStyle;rounded=0;orthogonalLoop=1;jettySize=auto;html=1;" edge="1" parent="1" source="gPNWTfjglvAvMmKYc1Ev-22" target="gPNWTfjglvAvMmKYc1Ev-24">
          <mxGeometry relative="1" as="geometry" />
        </mxCell>
        <mxCell id="gPNWTfjglvAvMmKYc1Ev-22" value="compilation&lt;br&gt;.finish&lt;br&gt;.seal" style="rounded=0;whiteSpace=wrap;html=1;" vertex="1" parent="1">
          <mxGeometry x="262" y="1310" width="96.92" height="50" as="geometry" />
        </mxCell>
        <mxCell id="gPNWTfjglvAvMmKYc1Ev-24" value="h-afterCompile" style="rounded=0;whiteSpace=wrap;html=1;" vertex="1" parent="1">
          <mxGeometry x="262" y="1440" width="96.92" height="50" as="geometry" />
        </mxCell>
      </root>
    </mxGraphModel>
  </diagram>
</mxfile>
